<?xml version="1.0" standalone="no"?>
<!DOCTYPE svg PUBLIC "-//W3C//DTD SVG 20010904//EN"
 "http://www.w3.org/TR/2001/REC-SVG-20010904/DTD/svg10.dtd">
<svg version="1.0" xmlns="http://www.w3.org/2000/svg"
 width="256.000000pt" height="256.000000pt" viewBox="0 0 256.000000 256.000000"
 preserveAspectRatio="xMidYMid meet">
<metadata>
Created by potrace 1.11, written by Peter Selinger 2001-2013
</metadata>
<g transform="translate(0.000000,256.000000) scale(0.100000,-0.100000)"
fill="#000000" stroke="none">
<path d="M980 1670 c0 -5 -7 -6 -17 -3 -12 5 -14 3 -8 -7 5 -9 4 -11 -4 -6 -6
4 -19 2 -28 -6 -14 -11 -16 -11 -9 2 4 8 1 7 -8 -4 -8 -10 -22 -16 -30 -13
-11 4 -13 1 -9 -11 6 -15 5 -16 -12 -2 -19 15 -19 15 -1 -15 l19 -30 -21 19
c-21 18 -26 14 -24 -14 0 -3 -8 -7 -19 -7 -16 -2 -18 1 -10 11 8 10 6 18 -9
31 -11 10 -23 16 -26 12 -3 -3 4 -10 15 -17 12 -6 19 -15 16 -21 -9 -14 -27
-11 -19 4 4 6 -2 4 -14 -6 -11 -11 -26 -16 -32 -12 -9 6 -9 2 -1 -13 14 -27
14 -29 -4 -29 -9 0 -14 6 -11 14 3 8 2 11 -4 8 -5 -3 -8 4 -7 15 1 19 9 24 34
21 6 -1 14 3 17 7 9 15 -43 11 -55 -4 -6 -8 -16 -11 -22 -7 -5 3 -7 1 -4 -4 4
-6 -14 -32 -39 -58 -33 -36 -42 -50 -32 -56 21 -14 32 -10 19 5 -9 11 -9 16 0
22 8 5 9 3 4 -6 -6 -9 -4 -11 5 -5 9 6 11 4 5 -5 -6 -9 -4 -11 5 -5 9 6 11 4
5 -5 -6 -9 -4 -11 6 -5 11 7 12 6 2 -7 -7 -8 -10 -17 -7 -20 3 -3 -11 -5 -30
-3 -20 1 -37 -2 -37 -7 -1 -4 -2 -11 -3 -15 -1 -5 -6 -24 -10 -43 -5 -19 -13
-41 -19 -48 -7 -9 -5 -11 9 -6 18 7 18 7 1 -13 -18 -21 -18 -22 0 -32 10 -6
12 -11 6 -11 -7 0 -13 -6 -13 -14 0 -8 6 -16 13 -19 9 -3 9 -7 0 -17 -8 -9 -8
-20 2 -45 11 -25 11 -35 2 -45 -9 -10 -9 -11 0 -6 7 4 17 -2 23 -14 6 -11 8
-20 5 -20 -3 0 3 -10 15 -22 19 -20 24 -33 21 -51 0 -4 5 -6 11 -5 7 2 12 -3
10 -10 -1 -8 2 -11 7 -8 11 7 33 -19 23 -28 -4 -4 -2 -7 3 -6 22 5 36 -1 29
-12 -5 -7 -2 -9 9 -5 8 3 21 -1 27 -8 7 -8 15 -14 18 -13 20 2 23 -4 11 -19
-13 -16 -12 -17 4 -4 13 10 23 11 40 4 12 -6 66 -11 120 -12 130 -3 217 26
278 91 9 10 18 16 21 13 2 -3 4 8 4 25 0 16 -3 27 -6 25 -4 -2 -36 16 -71 41
-61 43 -65 44 -79 26 -45 -55 -158 -77 -225 -44 -37 18 -95 72 -95 88 0 7 -4
14 -9 16 -6 2 -12 14 -15 28 -7 42 -18 60 -30 53 -6 -3 -7 -2 -3 3 5 5 14 9
20 9 13 1 13 9 2 38 -4 10 -3 17 4 17 7 0 9 10 5 27 -6 22 -4 25 11 19 16 -6
16 -4 4 10 -11 14 -11 18 -1 21 6 3 10 9 6 14 -3 5 0 9 6 9 6 0 9 4 6 9 -3 4
3 16 14 26 21 19 29 8 9 -12 -8 -8 -7 -13 2 -18 7 -5 10 -4 5 3 -3 6 -2 13 4
17 5 3 7 18 4 33 -9 38 -13 42 -29 36 -11 -4 -12 -11 -5 -24 7 -13 5 -22 -9
-34 -9 -9 -21 -16 -26 -16 -5 0 0 7 11 16 16 13 16 15 2 10 -10 -3 -18 -1 -18
4 0 6 -8 10 -17 9 -11 0 -13 -3 -5 -6 14 -6 16 -32 2 -34 -27 -5 -35 -3 -35 6
0 6 -4 15 -8 22 -4 6 -3 14 3 18 5 3 10 0 10 -7 0 -8 5 -6 11 5 6 10 15 14 22
10 7 -4 6 0 -2 10 -10 13 -10 17 -1 17 6 0 14 -9 17 -20 5 -21 33 -28 33 -9 0
5 -4 8 -8 5 -10 -6 -9 55 1 72 5 6 12 12 17 12 10 0 8 -19 -4 -38 -4 -7 -5
-16 -1 -20 3 -3 10 0 14 7 6 9 12 5 22 -17 11 -25 16 -28 30 -19 10 6 15 15
13 19 -3 4 5 6 18 5 13 -2 23 -9 23 -15 0 -6 3 -14 7 -17 4 -4 5 5 3 21 l-5
29 16 -25 c9 -15 13 -17 10 -6 -5 16 -1 18 34 14 22 -2 40 0 40 5 0 5 25 -5
55 -21 54 -29 54 -29 72 -10 29 32 54 42 64 27 7 -11 9 -11 9 -1 0 9 5 10 19
3 10 -6 21 -7 25 -4 3 3 6 1 6 -5 0 -7 5 -12 11 -12 8 0 9 4 0 13 -6 8 -8 17
-4 20 9 10 25 9 19 -1 -3 -5 1 -9 8 -9 8 0 12 6 9 13 -6 16 -33 27 -33 13 0
-6 -5 -7 -11 -4 -6 4 -8 13 -5 21 3 8 0 14 -6 14 -7 0 -3 7 8 15 14 11 15 14
3 9 -10 -3 -20 -1 -24 5 -3 6 -1 11 5 11 6 0 8 5 4 12 -4 7 -3 8 5 4 6 -4 8
-12 5 -18 -5 -7 -2 -8 5 -4 7 5 10 14 7 22 -3 8 0 11 9 7 8 -3 12 -9 9 -14 -3
-5 1 -9 9 -9 8 0 21 -8 28 -17 8 -9 10 -14 4 -11 -6 4 -10 -7 -11 -25 -1 -18
1 -26 3 -19 8 21 33 13 43 -13 5 -14 13 -25 17 -25 5 0 17 -16 27 -35 11 -19
23 -35 28 -35 4 0 8 -5 8 -12 0 -6 11 -26 25 -43 13 -18 21 -35 18 -39 -4 -3
-1 -6 5 -6 7 0 12 -7 12 -15 0 -8 5 -15 10 -15 6 0 3 -11 -6 -25 -9 -14 -21
-22 -27 -18 -6 4 -7 1 -2 -7 4 -7 3 -15 -2 -19 -5 -3 -20 -24 -33 -46 -30 -50
-46 -66 -55 -57 -4 4 -6 0 -4 -8 3 -16 -31 -80 -43 -80 -8 0 -5 21 7 40 7 13
6 13 -7 2 -17 -13 -18 -28 -5 -50 5 -7 2 -14 -7 -18 -9 -3 -16 -12 -16 -20 0
-8 -5 -14 -11 -14 -5 0 -8 -4 -4 -9 3 -5 1 -12 -5 -16 -6 -3 -17 -20 -25 -36
l-16 -30 102 2 101 1 37 60 c68 112 114 178 123 178 6 0 7 7 4 15 -3 9 1 18 9
21 8 4 12 10 9 15 -3 5 -1 9 5 9 5 0 12 -14 16 -30 4 -17 11 -27 17 -24 16 10
-12 -39 -40 -68 -14 -15 -22 -31 -19 -35 4 -3 7 0 7 8 0 12 2 12 10 -1 5 -8
12 -11 17 -7 4 5 1 12 -6 16 -8 6 -9 11 -3 15 6 3 14 1 17 -4 5 -7 11 -5 20 6
8 11 18 15 30 10 10 -3 15 -9 11 -13 -3 -4 4 -17 16 -30 12 -13 18 -23 13 -23
-4 0 0 -9 10 -20 14 -15 15 -20 4 -20 -8 0 -1 -11 15 -23 22 -18 26 -26 16
-32 -9 -5 -11 -4 -6 3 5 8 1 10 -11 6 -15 -5 -15 -4 -3 5 12 8 11 10 -5 9 -12
-1 -21 -9 -21 -18 0 -11 9 -15 31 -14 16 1 35 -2 41 -7 11 -9 209 -8 218 2 3
2 -33 58 -80 123 -46 65 -84 122 -84 126 0 5 -3 10 -8 12 -12 5 -82 104 -82
116 0 6 -6 12 -12 15 -10 3 -10 7 1 20 7 10 11 17 8 17 -3 0 5 12 18 26 14 15
25 31 25 35 0 4 11 20 26 34 14 14 22 30 19 35 -3 6 -1 10 5 10 7 0 9 7 6 16
-6 15 -4 15 11 3 9 -8 14 -9 10 -2 -4 6 -3 13 2 15 5 1 11 9 13 17 3 15 21 41
46 67 7 8 10 14 5 14 -4 1 1 8 12 18 21 18 35 59 16 47 -6 -3 -11 -13 -11 -21
0 -8 -5 -12 -10 -9 -6 4 -9 3 -8 -2 3 -8 -5 -13 -23 -13 -5 0 -7 6 -3 13 4 6
3 8 -1 4 -15 -13 -14 -36 1 -30 20 7 17 -3 -8 -37 l-22 -30 -21 20 c-22 20
-22 20 -20 0 1 -11 5 -23 10 -27 4 -5 5 -2 1 5 -4 6 -3 12 3 12 18 0 21 -18 5
-31 -13 -10 -17 -10 -25 2 -12 20 -11 2 2 -23 10 -18 8 -19 -13 -14 -12 3 -17
3 -10 0 6 -3 12 -9 12 -14 0 -10 -33 -8 -41 4 -4 4 -6 -4 -6 -19 0 -17 2 -22
7 -15 4 7 13 9 20 5 9 -6 11 -4 5 5 -5 9 -4 11 4 6 6 -4 9 -12 5 -17 -3 -5
-10 -6 -16 -3 -7 4 -8 2 -4 -4 4 -7 1 -12 -9 -12 -9 0 -14 -4 -10 -9 3 -5 -1
-15 -8 -23 -8 -7 -12 -20 -10 -28 4 -12 3 -12 -5 -2 -7 11 -10 10 -16 -3 -3
-9 -3 -22 1 -28 3 -7 3 -9 -2 -5 -4 4 -15 2 -23 -5 -13 -9 -14 -9 -8 1 4 6 3
12 -2 12 -5 0 -12 -10 -15 -22 -4 -12 -9 -19 -12 -16 -11 11 16 50 31 44 16
-6 18 3 4 24 -9 13 -10 13 -10 0 0 -13 -1 -13 -10 0 -5 8 -10 12 -11 8 -1 -5
-3 -12 -4 -18 -1 -5 -3 -15 -4 -22 0 -7 -8 -3 -17 8 -15 19 -15 18 -9 -3 7
-26 -29 -53 -38 -29 -4 10 0 12 14 9 11 -3 19 0 19 6 0 7 -5 9 -11 5 -7 -4 -3
7 7 25 10 17 24 29 31 27 7 -3 15 -1 18 4 4 6 -3 11 -14 11 -12 1 -25 3 -31 4
-5 1 -14 3 -20 4 -5 0 -10 6 -10 13 0 9 3 9 12 0 16 -16 59 23 51 47 -4 13 -3
13 5 2 6 -8 9 -22 7 -32 -2 -10 2 -17 8 -15 7 1 9 1 5 -1 -5 -3 -8 -9 -8 -14
0 -5 3 -8 8 -8 4 1 9 0 12 -1 21 -8 39 -7 34 2 -5 7 -2 8 6 3 9 -6 11 -4 5 5
-6 9 -4 11 4 5 10 -6 11 -3 2 13 -6 11 -8 29 -5 39 4 13 3 14 -4 5 -5 -8 -13
-14 -18 -15 -5 -1 -8 -10 -7 -20 2 -14 0 -15 -16 -5 -23 14 -19 23 23 50 27
17 28 19 6 13 -20 -6 -22 -5 -13 5 6 7 9 20 5 29 -5 14 -4 14 13 1 11 -9 16
-10 11 -2 -4 7 -2 12 4 12 6 0 9 4 5 9 -8 15 14 24 29 12 9 -8 13 -7 13 2 0
16 -27 18 -44 4 -19 -14 -16 3 4 25 16 18 16 18 -2 12 -13 -5 -16 -4 -11 4 4
7 2 12 -4 12 -7 0 -9 -8 -5 -20 4 -11 2 -20 -4 -20 -6 0 -11 5 -11 11 0 5 -5
7 -11 4 -6 -5 -3 -13 10 -22 12 -8 21 -19 21 -25 0 -6 -8 -4 -18 5 -16 15 -19
15 -30 -4 -8 -12 -18 -17 -25 -12 -7 4 -5 -2 3 -12 14 -17 13 -18 -5 -12 -19
7 -19 6 -2 -7 21 -16 22 -27 2 -20 -9 4 -16 -3 -21 -20 -3 -14 -9 -26 -13 -27
-3 0 -16 -2 -28 -5 -22 -4 -29 9 -24 39 1 5 -3 6 -9 2 -9 -5 -14 8 -7 19 2 5
-48 46 -57 46 -3 0 -6 -5 -6 -12 0 -6 3 -9 6 -5 3 3 12 0 19 -6 10 -10 7 -16
-18 -30 -18 -10 -23 -15 -12 -11 50 16 59 15 30 -3 -16 -11 -40 -19 -53 -17
-12 1 -20 -2 -16 -7 3 -5 0 -9 -7 -9 -7 0 -9 8 -6 21 4 16 3 19 -5 11 -15 -15
-19 -42 -7 -42 5 0 9 -5 9 -11 0 -8 -5 -8 -15 1 -8 7 -13 16 -10 20 3 4 -2 11
-11 14 -9 4 -14 9 -10 13 3 3 -3 12 -14 20 -22 16 -22 50 1 64 11 7 11 9 -3 9
-16 0 -23 -11 -19 -32 0 -5 -6 -8 -15 -8 -8 0 -13 4 -9 9 3 5 0 13 -6 16 -5 4
-8 14 -5 22 5 11 1 14 -13 10 -14 -3 -17 0 -14 13 3 11 -4 24 -18 34 -18 12
-21 18 -11 28 7 7 12 17 12 23 0 5 -5 2 -10 -7 -7 -11 -18 -15 -33 -12 -12 3
-34 5 -49 6 -15 0 -25 5 -22 10 3 4 1 8 -5 8 -5 0 -12 -6 -14 -12 -4 -8 -6 -7
-6 3 -1 14 -13 16 -78 15 -43 0 -84 -5 -92 -10 -10 -6 -12 -6 -7 2 4 7 2 12
-3 12 -6 0 -11 -4 -11 -10z m170 -10 c0 -5 -2 -10 -4 -10 -3 0 -8 5 -11 10 -3
6 -1 10 4 10 6 0 11 -4 11 -10z m63 -41 c-8 -8 -13 -7 -18 2 -5 8 -4 10 3 5 7
-4 12 -2 12 5 0 7 3 9 7 6 4 -4 2 -12 -4 -18z m-267 -1 c3 -4 -1 -5 -10 -4 -8
1 -18 5 -22 8 -3 4 1 5 10 4 8 -1 18 -5 22 -8z m203 -11 c8 -10 7 -14 -2 -14
-8 0 -14 6 -14 14 0 7 1 13 2 13 2 0 8 -6 14 -13z m-451 -44 c7 -63 6 -78 -5
-78 -6 0 -15 -3 -19 -8 -4 -4 -15 0 -25 9 -14 13 -16 21 -8 36 5 10 14 16 18
14 4 -3 13 6 19 19 14 30 17 31 20 8z m72 13 c0 -2 -8 -10 -17 -17 -16 -13
-17 -12 -4 4 13 16 21 21 21 13z m361 -6 c9 13 10 13 6 0 -2 -8 -10 -15 -17
-15 -7 0 -15 7 -17 15 -4 13 -3 13 6 0 10 -13 12 -13 22 0z m-147 -16 c3 -8 2
-12 -4 -9 -6 3 -10 10 -10 16 0 14 7 11 14 -7z m37 -7 c-10 -9 -11 -8 -5 6 3
10 9 15 12 12 3 -3 0 -11 -7 -18z m-173 -17 c-15 -24 -24 -25 -31 -6 -4 10 -1
13 7 10 8 -3 17 -1 21 5 3 6 8 11 11 11 2 0 -1 -9 -8 -20z m245 0 c4 0 5 5 2
10 -10 16 1 11 16 -7 8 -10 9 -14 2 -10 -6 4 -14 3 -17 -2 -11 -18 24 -5 39
15 8 10 15 15 15 9 0 -18 -48 -67 -55 -55 -3 6 -11 7 -17 4 -6 -4 -8 2 -3 17
5 18 4 20 -4 9 -5 -8 -14 -11 -18 -6 -4 5 -2 11 5 13 6 3 9 10 6 16 -5 8 -2 8
7 0 7 -7 17 -13 22 -13z m146 7 c15 -18 3 -29 -19 -17 -10 5 -21 6 -26 2 -5
-4 -2 1 5 11 16 21 25 21 40 4z m505 -19 c-1 -13 -3 -25 -4 -28 -1 -3 -2 -8
-2 -12 1 -3 -5 -12 -13 -18 -11 -9 -15 -9 -15 -1 0 6 5 11 11 11 8 0 8 4 2 13
-13 17 -10 36 7 47 8 5 15 10 16 10 0 0 0 -10 -2 -22z m-994 0 c0 -4 -4 -8 -9
-8 -6 0 -12 4 -15 8 -3 5 1 9 9 9 8 0 15 -4 15 -9z m1150 8 c0 -2 -8 -10 -17
-17 -16 -13 -17 -12 -4 4 13 16 21 21 21 13z m-1226 -90 c-3 -7 2 -16 10 -19
10 -4 14 -16 11 -37 -2 -21 0 -30 8 -27 7 2 11 13 9 23 -2 15 -1 16 7 5 6 -9
5 -21 -2 -32 -10 -17 -13 -17 -29 -2 -18 16 -26 5 -8 -13 6 -6 6 -15 -1 -24
-8 -12 -9 -12 -7 4 2 10 -3 21 -10 23 -7 3 -10 -1 -7 -10 9 -21 -22 -44 -38
-28 -9 10 -8 12 7 9 10 -1 21 2 23 8 5 14 -28 14 -47 0 -13 -10 -13 -9 -1 7 8
10 20 16 27 13 7 -3 16 -1 19 4 4 6 -3 10 -14 10 -18 0 -23 21 -8 36 8 9 -1
24 -14 24 -6 0 -8 -4 -4 -9 3 -5 1 -12 -4 -15 -5 -4 -8 2 -7 11 2 10 12 18 23
19 28 2 43 12 43 30 0 8 4 13 10 9 5 -3 7 -12 4 -19z m921 -6 c18 -34 18 -40
5 -40 -5 0 -9 3 -8 8 4 16 -14 52 -24 46 -7 -4 -8 -2 -4 4 10 17 14 15 31 -18z
m-30 -2 c6 -4 -5 -6 -23 -3 -27 3 -32 1 -28 -11 3 -9 1 -12 -4 -9 -6 3 -13 -1
-16 -9 -3 -9 -11 -16 -16 -16 -6 0 -5 6 2 15 7 8 9 15 5 15 -4 0 -2 7 5 15 7
9 19 14 26 11 7 -3 16 -1 20 5 3 6 9 7 13 2 3 -4 11 -11 16 -15z m192 -25
c-10 -11 -17 -12 -22 -4 -4 7 -1 10 7 9 8 -2 12 6 11 22 -3 22 -2 23 8 6 9
-14 8 -22 -4 -33z m-1014 11 c-7 -3 -9 -13 -6 -22 6 -14 5 -15 -9 -2 -16 15
-7 31 17 29 6 0 5 -3 -2 -5z m807 -14 c0 -5 -4 -10 -10 -10 -5 0 -10 5 -10 10
0 6 5 10 10 10 6 0 10 -4 10 -10z m35 -40 c1 -10 -2 -17 -6 -14 -4 2 -7 13 -6
24 2 23 10 17 12 -10z m39 18 c-5 -7 -2 -9 9 -5 10 4 14 2 11 -7 -7 -18 -32
-16 -29 3 5 22 4 21 11 21 3 0 2 -5 -2 -12z m-69 -17 c-3 -6 -11 -11 -16 -11
-5 0 -4 6 3 14 14 16 24 13 13 -3z m-955 5 c0 -3 -4 -8 -10 -11 -5 -3 -10 -1
-10 4 0 6 5 11 10 11 6 0 10 -2 10 -4z m929 -50 c-3 -3 -11 5 -18 17 -13 21
-12 21 5 5 10 -10 16 -20 13 -22z m-809 -6 c-12 -23 -16 -24 -26 -8 -4 6 -3 8
3 5 6 -4 13 0 17 8 3 8 8 15 11 15 3 0 1 -9 -5 -20z m845 11 c3 -5 2 -12 -3
-15 -5 -3 -9 1 -9 9 0 17 3 19 12 6z m145 -59 c0 -1 -9 2 -20 8 -11 6 -20 15
-20 20 0 6 9 2 20 -7 11 -10 20 -19 20 -21z m23 17 c-8 -8 -13 -7 -18 2 -5 8
-4 10 3 5 7 -4 12 -2 12 5 0 7 3 9 7 6 4 -4 2 -12 -4 -18z m-1123 1 c0 -5 -4
-10 -10 -10 -5 0 -10 5 -10 10 0 6 5 10 10 10 6 0 10 -4 10 -10z m44 -5 c-10
-8 -23 -15 -28 -15 -6 0 -1 7 10 15 10 8 23 15 28 15 6 0 1 -7 -10 -15z m31
-14 c3 -5 0 -13 -6 -17 -7 -4 -9 -3 -5 4 3 5 0 13 -6 15 -9 4 -10 6 -1 6 6 1
14 -3 18 -8z m1075 -16 c0 -2 -6 -5 -13 -8 -8 -3 -14 1 -14 8 0 7 6 11 14 8 7
-3 13 -6 13 -8z m-1120 -1 c0 -8 -19 -13 -24 -6 -3 5 1 9 9 9 8 0 15 -2 15 -3z
m1030 0 c0 -8 -19 -13 -24 -6 -3 5 1 9 9 9 8 0 15 -2 15 -3z m-1000 -44 c0 -5
-5 -10 -11 -10 -5 0 -7 5 -4 10 3 6 8 10 11 10 2 0 4 -4 4 -10z m1002 -117
c-27 -20 -34 -15 -16 13 12 18 19 22 25 13 4 -8 1 -18 -9 -26z"/>
<path d="M671 1523 c-8 -14 -10 -15 -11 -3 0 13 -1 13 -10 0 -12 -19 8 -44 25
-30 6 5 14 8 16 5 3 -2 5 5 6 15 2 27 -14 34 -26 13z m7 -19 c-12 -12 -17 -13
-23 -3 -5 8 -4 10 4 5 6 -4 14 0 17 9 4 9 9 13 12 10 3 -3 -1 -13 -10 -21z"/>
<path d="M1723 1505 c0 -8 4 -12 9 -9 5 3 6 10 3 15 -9 13 -12 11 -12 -6z"/>
<path d="M642 1395 c-23 -23 -23 -24 -3 -34 13 -8 22 -8 26 -1 4 6 12 7 18 3
8 -4 7 -1 -1 9 -9 12 -10 17 -1 20 8 3 7 7 -3 15 -10 9 -18 6 -36 -12z m24 -7
c-1 -13 -6 -22 -9 -20 -4 1 -11 2 -17 2 -5 0 -2 9 8 19 22 25 22 25 18 -1z"/>
<path d="M820 1659 c0 -5 -4 -8 -9 -4 -5 3 -13 1 -16 -5 -8 -13 14 -42 25 -35
7 5 11 55 4 55 -2 0 -4 -5 -4 -11z m0 -30 c0 -6 -4 -7 -10 -4 -5 3 -10 11 -10
16 0 6 5 7 10 4 6 -3 10 -11 10 -16z"/>
<path d="M845 1659 c-4 -6 -4 -13 -1 -16 3 -4 6 -1 6 6 0 7 5 9 12 5 7 -4 8
-3 4 4 -9 15 -13 15 -21 1z"/>
<path d="M1354 1659 c-2 -4 10 -5 26 -4 17 1 30 -2 30 -7 0 -5 5 -6 11 -3 15
10 61 -4 54 -16 -5 -7 -11 -6 -20 1 -10 9 -19 9 -32 0 -16 -10 -16 -10 4 -5
12 3 24 1 28 -5 3 -6 11 -8 16 -4 5 3 18 -5 28 -18 14 -16 16 -25 8 -30 -8 -5
-6 -8 6 -8 19 0 23 15 7 25 -6 4 -8 9 -6 13 2 4 -7 20 -20 37 -21 27 -30 30
-80 30 -30 0 -57 -2 -60 -6z"/>
<path d="M1790 1658 c0 -9 95 -6 104 3 3 3 -19 5 -49 5 -30 0 -55 -4 -55 -8z"/>
<path d="M1775 1630 c-4 -6 1 -7 11 -3 13 5 15 3 9 -7 -5 -9 -4 -11 4 -6 6 4
9 12 6 17 -8 12 -22 12 -30 -1z"/>
<path d="M1828 1623 c7 -3 16 -2 19 1 4 3 -2 6 -13 5 -11 0 -14 -3 -6 -6z"/>
<path d="M1340 1604 c6 -6 7 -14 3 -17 -3 -4 -3 -7 0 -7 3 0 11 8 16 18 7 14
6 18 -9 18 -13 0 -16 -4 -10 -12z"/>
<path d="M1261 1602 c1 -4 0 -9 -1 -12 -8 -23 -5 -37 9 -37 19 0 31 15 24 33
-5 13 -33 28 -32 16z m23 -33 c-3 -5 -10 -7 -15 -3 -5 3 -7 10 -3 15 3 5 10 7
15 3 5 -3 7 -10 3 -15z"/>
<path d="M1425 1600 c-3 -6 1 -7 9 -4 18 7 21 14 7 14 -6 0 -13 -4 -16 -10z"/>
<path d="M1810 1601 c0 -6 4 -12 8 -15 5 -3 9 1 9 9 0 8 -4 15 -9 15 -4 0 -8
-4 -8 -9z"/>
<path d="M1893 1598 c3 -9 1 -19 -6 -22 -9 -3 -9 -5 0 -5 18 -1 23 13 11 29
-8 12 -9 12 -5 -2z"/>
<path d="M1477 1576 c-3 -8 0 -22 7 -32 10 -13 15 -14 21 -4 5 9 4 11 -3 6
-12 -7 -16 5 -13 32 2 16 -6 15 -12 -2z"/>
<path d="M1371 1554 c0 -11 3 -14 6 -6 3 7 2 16 -1 19 -3 4 -6 -2 -5 -13z"/>
<path d="M1528 1543 c7 -3 16 -2 19 1 4 3 -2 6 -13 5 -11 0 -14 -3 -6 -6z"/>
<path d="M1407 1510 c-3 -11 0 -23 5 -27 7 -4 8 -1 3 7 -5 8 -3 11 6 8 8 -3
13 -15 13 -26 -2 -25 11 -29 20 -7 3 9 -3 23 -14 32 -10 9 -17 20 -14 25 3 4
1 8 -4 8 -5 0 -12 -9 -15 -20z"/>
<path d="M1446 1522 c-3 -5 1 -9 9 -9 8 0 15 4 15 9 0 4 -4 8 -9 8 -6 0 -12
-4 -15 -8z"/>
<path d="M1790 1500 c0 -5 5 -10 10 -10 6 0 10 5 10 10 0 6 -4 10 -10 10 -5 0
-10 -4 -10 -10z"/>
<path d="M945 1490 c4 -6 11 -8 16 -5 14 9 11 15 -7 15 -8 0 -12 -5 -9 -10z"/>
<path d="M1210 1496 c0 -2 8 -10 18 -17 15 -13 16 -12 3 4 -13 16 -21 21 -21
13z"/>
<path d="M1510 1490 c0 -5 7 -7 15 -4 8 4 15 8 15 10 0 2 -7 4 -15 4 -8 0 -15
-4 -15 -10z"/>
<path d="M860 1480 c-9 -6 -10 -10 -3 -10 6 0 15 5 18 10 8 12 4 12 -15 0z"/>
<path d="M870 1450 c-6 -11 -8 -20 -6 -20 3 0 10 9 16 20 6 11 8 20 6 20 -3 0
-10 -9 -16 -20z"/>
<path d="M599 1449 c14 -5 28 -6 32 -2 4 4 -6 9 -24 10 -30 1 -31 1 -8 -8z"/>
<path d="M700 1439 c0 -5 5 -7 10 -4 6 3 10 8 10 11 0 2 -4 4 -10 4 -5 0 -10
-5 -10 -11z"/>
<path d="M833 1443 c4 -3 1 -13 -6 -22 -11 -14 -10 -14 5 -2 16 12 16 31 1 31
-4 0 -3 -3 0 -7z"/>
<path d="M1680 1415 c-10 -12 -10 -15 2 -15 8 0 15 7 15 15 0 8 -1 15 -2 15
-2 0 -8 -7 -15 -15z"/>
<path d="M526 1382 c-3 -5 1 -9 9 -9 8 0 12 4 9 9 -3 4 -7 8 -9 8 -2 0 -6 -4
-9 -8z"/>
<path d="M1416 1382 c-3 -5 1 -9 9 -9 8 0 12 4 9 9 -3 4 -7 8 -9 8 -2 0 -6 -4
-9 -8z"/>
<path d="M1714 1379 c-4 -7 -3 -9 4 -5 6 3 15 -1 20 -10 8 -15 10 -14 16 2 4
10 4 15 0 11 -4 -4 -13 -2 -20 4 -8 7 -14 6 -20 -2z"/>
<path d="M1675 1361 c-3 -5 -2 -12 3 -15 5 -3 9 1 9 9 0 17 -3 19 -12 6z"/>
<path d="M2045 1358 c-8 -26 0 -101 13 -106 9 -3 12 13 12 57 0 35 -4 61 -10
61 -6 0 -13 -6 -15 -12z"/>
<path d="M509 1323 c-13 -16 -12 -17 4 -4 9 7 17 15 17 17 0 8 -8 3 -21 -13z"/>
<path d="M835 1289 c-4 -6 -5 -12 -2 -15 2 -3 7 2 10 11 7 17 1 20 -8 4z"/>
<path d="M1413 1273 c0 -9 4 -10 14 -2 7 6 13 12 13 14 0 1 -6 2 -13 2 -8 0
-14 -6 -14 -14z"/>
<path d="M1436 1255 c-9 -26 -7 -32 5 -12 6 10 9 21 6 23 -2 3 -7 -2 -11 -11z"/>
<path d="M1405 1219 c-4 -6 -4 -13 -1 -16 3 -4 6 -1 6 6 0 7 5 9 12 5 7 -4 8
-3 4 4 -9 15 -13 15 -21 1z"/>
<path d="M1336 1202 c-3 -5 1 -9 9 -9 8 0 12 4 9 9 -3 4 -7 8 -9 8 -2 0 -6 -4
-9 -8z"/>
<path d="M1390 1180 c0 -5 5 -10 10 -10 6 0 10 5 10 10 0 6 -4 10 -10 10 -5 0
-10 -4 -10 -10z"/>
<path d="M1343 1163 c14 -16 15 -22 5 -26 -9 -4 -9 -6 -1 -6 7 -1 17 9 24 20
8 16 8 20 0 14 -7 -4 -20 -1 -29 6 -14 12 -14 10 1 -8z"/>
<path d="M1315 1163 c3 -3 0 -11 -5 -18 -7 -8 -5 -12 4 -12 14 0 16 22 3 32
-4 3 -5 2 -2 -2z"/>
<path d="M1620 1120 c0 -5 5 -10 10 -10 6 0 10 5 10 10 0 6 -4 10 -10 10 -5 0
-10 -4 -10 -10z"/>
<path d="M1590 1105 c-7 -8 -9 -22 -6 -31 6 -15 8 -15 26 1 11 10 18 21 15 23
-3 3 -12 -3 -20 -14 -11 -15 -14 -16 -15 -3 0 8 5 20 12 27 7 7 9 12 6 12 -3
0 -11 -7 -18 -15z"/>
<path d="M1662 1044 c-14 -16 -5 -18 17 -5 7 5 9 11 5 14 -5 3 -15 -1 -22 -9z"/>
<path d="M586 1042 c-3 -5 1 -9 9 -9 8 0 12 4 9 9 -3 4 -7 8 -9 8 -2 0 -6 -4
-9 -8z"/>
<path d="M1266 1038 c3 -5 10 -6 15 -3 13 9 11 12 -6 12 -8 0 -12 -4 -9 -9z"/>
<path d="M1683 1025 c-12 -8 -30 -12 -40 -9 -13 4 -15 3 -4 -4 11 -8 11 -11 0
-16 -8 -3 -4 -3 8 0 18 4 22 2 17 -10 -3 -9 -10 -13 -15 -10 -5 3 -6 -2 -3
-10 6 -15 23 -21 53 -16 13 1 13 -1 2 -14 -7 -9 -17 -13 -22 -10 -16 9 -10 -3
8 -17 10 -8 14 -9 10 -2 -4 6 -3 14 3 18 5 3 10 1 10 -5 0 -6 5 -8 11 -4 8 4
7 9 -2 15 -12 7 -11 9 1 10 8 1 19 1 23 0 5 -1 5 4 0 11 -4 7 -8 18 -8 23 -1
6 -6 9 -13 8 -13 -3 -17 23 -4 30 4 2 1 2 -7 0 -8 -2 -11 2 -7 12 7 19 6 19
-21 0z m17 -25 c0 -5 -7 -7 -15 -4 -8 4 -12 10 -9 15 6 11 24 2 24 -11z m-10
-19 c0 -6 8 -8 18 -6 11 2 19 -3 19 -11 0 -8 -4 -14 -9 -14 -4 0 -8 5 -8 11 0
8 -5 8 -15 -1 -11 -9 -15 -9 -15 -1 0 7 -4 9 -10 6 -6 -3 -7 1 -4 9 7 17 24
22 24 7z"/>
</g>
</svg>
